<?xml version="1.0" encoding="UTF-8" standalone="no"?>
<!-- Created with Inkscape (http://www.inkscape.org/) -->

<svg
   version="1.1"
   id="svg2"
   width="2829.3333"
   height="2829.3333"
   viewBox="0 0 2829.3333 2829.3333"
   sodipodi:docname="cedef8d0-c9e1-4e06-89c3-01e65072c280.eps"
   xmlns:inkscape="http://www.inkscape.org/namespaces/inkscape"
   xmlns:sodipodi="http://sodipodi.sourceforge.net/DTD/sodipodi-0.dtd"
   xmlns="http://www.w3.org/2000/svg"
   xmlns:svg="http://www.w3.org/2000/svg">
  <defs
     id="defs6" />
  <sodipodi:namedview
     id="namedview4"
     pagecolor="#ffffff"
     bordercolor="#000000"
     borderopacity="0.25"
     inkscape:showpageshadow="2"
     inkscape:pageopacity="0.0"
     inkscape:pagecheckerboard="0"
     inkscape:deskcolor="#d1d1d1" />
  <g
     id="g8"
     inkscape:groupmode="layer"
     inkscape:label="ink_ext_XXXXXX"
     transform="matrix(1.3333333,0,0,-1.3333333,0,2829.3333)">
    <g
       id="g10"
       transform="scale(0.1)">
      <path
         d="m 6735.85,18060.4 c -820.46,814.4 -2460.26,1722.3 -3099.85,1216.4 -16.76,-13.3 -32.62,-27.7 -47.61,-43.2 14.99,15.5 30.85,29.9 47.61,43.2 -434.59,-869.2 261.15,-1565.6 615.07,-2058.1 367.41,-511.2 1416.18,-1793.3 2230.4,-2598.6 269,-266.1 840.07,-333.6 840.07,-333.6 l 1496.12,1137.8 c -807.64,1072 -1963.6,2518.8 -2081.81,2636.1"
         style="fill:#e54859;fill-opacity:1;fill-rule:nonzero;stroke:none"
         id="path12" />
      <path
         d="m 6481.47,14620.1 c -814.22,805.3 -1862.99,2087.4 -2230.4,2598.6 -353.92,492.5 -1049.66,1188.9 -615.07,2058.1 -33.51,-26.6 -63.45,-57.6 -89.98,-92.8 -39.78,-52.7 -71.88,-114.6 -96.84,-184.4 -16.65,-46.5 -30.13,-96.4 -40.6,-149.4 -15.7,-79.5 -24.65,-165.7 -27.39,-257.4 -1.84,-61.1 -0.91,-124.5 2.61,-190 7.04,-130.8 24.45,-269.4 50.91,-412.5 13.22,-71.5 28.72,-144.1 46.31,-217.3 17.59,-73.3 37.28,-147.2 58.91,-221.3 21.62,-74.2 45.18,-148.6 70.5,-222.8 75.98,-222.5 167.88,-443.2 271.25,-650.5 68.9,-138.2 142.92,-270.5 220.71,-393.3 86.76,-137 214.88,-323.3 370.17,-540.6 31.05,-43.4 63.2,-88.1 96.31,-133.9 132.47,-183.1 280.5,-383.7 436.8,-592.4 39.08,-52.1 78.68,-104.8 118.68,-157.8 40,-53.1 80.4,-106.4 121.09,-160 40.7,-53.6 81.68,-107.4 122.84,-161.3 82.32,-107.7 165.35,-215.6 248.17,-322.7 41.42,-53.5 82.77,-106.8 123.97,-159.7 41.2,-52.9 82.23,-105.4 122.98,-157.4 101.88,-130 202.02,-256.7 298.65,-377.9 19.49,-24.4 38.84,-48.6 58.03,-72.6 l 1101.46,837.7 c 0,0 -571.07,67.5 -840.07,333.6"
         style="fill:#da3549;fill-opacity:1;fill-rule:nonzero;stroke:none"
         id="path14" />
      <path
         d="m 17645.7,4953 -4872,6406.1 -1831.5,-1392.9 4872,-6406.1 c 307.1,-403.9 888.8,-483 1292.7,-175.9 l 362.9,276 c 403.9,307.2 483,888.9 175.9,1292.8"
         style="fill:#29242c;fill-opacity:1;fill-rule:nonzero;stroke:none"
         id="path16" />
      <path
         d="m 17106.9,3384.2 c -403.9,-307.1 -985.6,-228 -1292.7,175.9 L 10942.2,9966.2 9110.71,8573.3 13982.7,2167.2 c 115.1,-151.5 268.9,-257.3 437.5,-314.1 84.2,-28.5 172.2,-44.7 260.9,-48.3 206.9,-8.3 417.6,52.1 594.3,186.5 l 1831.5,1392.9 v 0"
         style="fill:#211d22;fill-opacity:1;fill-rule:nonzero;stroke:none"
         id="path18" />
      <path
         d="m 11723.4,11972.4 -2728.05,3587.1 -177.69,-135.2 -1496.12,-1137.8 2728.06,-3587.1 212.2,161.4 v 0 l 1461.6,1111.6"
         style="fill:#e9e9e9;fill-opacity:1;fill-rule:nonzero;stroke:none"
         id="path20" />
      <path
         d="m 7321.54,14286.5 -1101.46,-837.7 -147.85,-112.4 2728.04,-3587.1 1249.33,950.1 -2728.06,3587.1"
         style="fill:#cac9c9;fill-opacity:1;fill-rule:nonzero;stroke:none"
         id="path22" />
      <path
         d="m 12651.8,11519.4 c -307.2,403.9 -522.1,762 -926,454.9 l -2.4,-1.9 -1461.6,-1111.6 680.4,-894.6 1831.5,1392.9 v 0 l -121.9,160.3"
         style="fill:#d3d2d2;fill-opacity:1;fill-rule:nonzero;stroke:none"
         id="path24" />
      <path
         d="m 10261.8,10860.8 v 0 l -212.2,-161.4 -1249.33,-950.1 h -0.01 c -100.96,-76.8 -158.86,-153.4 -184.12,-231.5 -3.16,-9.7 -5.8,-19.5 -7.96,-29.3 -4.31,-19.6 -6.67,-39.3 -7.23,-59.2 -0.56,-19.8 0.68,-39.8 3.55,-59.9 2.87,-20.1 7.37,-40.4 13.34,-60.9 11.95,-40.8 29.77,-82.4 52.17,-125 72.8,-138.1 193.96,-285.8 318.74,-449.9 l 121.96,-160.3 1831.49,1392.9 -680.4,894.6"
         style="fill:#aeacac;fill-opacity:1;fill-rule:nonzero;stroke:none"
         id="path26" />
      <path
         d="m 5537.81,18853.9 c -660.98,433.8 -1597.25,619.8 -1865.8,210.6 -268.55,-409.2 318.06,-1416.7 985.27,-1748.1 708.08,-351.6 1572.16,-248.7 1840.71,160.5 268.55,409.2 -299.21,943.2 -960.18,1377"
         style="fill:#f36470;fill-opacity:1;fill-rule:nonzero;stroke:none"
         id="path28" />
      <path
         d="m 8349.15,15581 -1276.67,1678.7 c -53.79,70.7 -155.68,84.6 -226.41,30.8 -70.74,-53.8 -84.6,-155.7 -30.8,-226.4 l 1276.66,-1678.7 c 53.8,-70.7 155.68,-84.6 226.42,-30.8 70.73,53.8 84.59,155.7 30.8,226.4"
         style="fill:#f36470;fill-opacity:1;fill-rule:nonzero;stroke:none"
         id="path30" />
      <path
         d="m 11263.5,12245.9 -2096.35,2756.6 c -100.17,131.7 -289.9,157.5 -421.62,57.3 -131.72,-100.1 -157.53,-289.9 -57.35,-421.6 l 2096.42,-2756.5 c 100.1,-131.7 289.9,-157.6 421.6,-57.4 v 0 c 131.7,100.2 157.5,289.9 57.3,421.6"
         style="fill:#ffffff;fill-opacity:1;fill-rule:nonzero;stroke:none"
         id="path32" />
      <path
         d="M 17307.4,4796 12834,10678 c -112.8,148.4 -326.5,177.4 -474.9,64.6 l -68.1,-51.8 c -148.3,-112.8 -177.4,-326.5 -64.6,-474.9 l 4473.4,-5882 c 112.8,-148.4 326.5,-177.4 474.9,-64.6 l 68.1,51.8 c 148.3,112.8 177.4,326.5 64.6,474.9"
         style="fill:#3f3a48;fill-opacity:1;fill-rule:nonzero;stroke:none"
         id="path34" />
      <path
         d="m 12344.8,11689.8 -47.3,62.3 c -125.7,165.3 -363.8,197.7 -529.1,72 l -454.9,-346 c -165.3,-125.7 -197.7,-363.8 -72,-529.1 l 47.4,-62.3 c 125.7,-165.3 363.8,-197.6 529.1,-71.9 l 454.9,345.9 c 165.3,125.7 197.6,363.8 71.9,529.1"
         style="fill:#f4f4f4;fill-opacity:1;fill-rule:nonzero;stroke:none"
         id="path36" />
    </g>
  </g>
</svg>
